<?xml version="1.0" encoding="UTF-8"?>
<svg version="1.1" xmlns="http://www.w3.org/2000/svg" width="512" height="512">
<path d="M0 0 C9.47463573 6.94911196 16.95161439 16.64389635 19.421875 28.35546875 C20.71840454 42.36291128 19.58515159 54.65161646 11.046875 66.29296875 C4.88593738 73.54035128 -0.73461709 76.93371479 -9.578125 81.35546875 C-9.908125 91.91546875 -10.238125 102.47546875 -10.578125 113.35546875 C-6.845 113.10796875 -3.111875 112.86046875 0.734375 112.60546875 C1.88719971 112.5374707 3.04002441 112.46947266 4.2277832 112.39941406 C17.41897585 111.40740944 28.52573965 106.86005444 37.609375 97.10546875 C40.22721019 94.02899708 42.35705745 90.92202447 44.359375 87.41796875 C47.64726477 81.67975462 51.80835503 77.06460572 56.421875 72.35546875 C57.30939453 71.41380859 57.30939453 71.41380859 58.21484375 70.453125 C62.31589272 66.46071309 66.93948292 63.78114153 71.984375 61.16796875 C72.59031494 60.84683105 73.19625488 60.52569336 73.82055664 60.19482422 C89.43538404 52.50171384 105.13475005 52.75194705 122.18826032 52.81816673 C125.66075163 52.82841813 129.13320429 52.81886978 132.60569763 52.81262207 C138.42283862 52.8053892 144.23977497 52.81482673 150.05688477 52.83398438 C156.7697396 52.85583743 163.48210996 52.84862373 170.1949535 52.82667875 C175.98642662 52.80850952 181.7777543 52.80597103 187.56924671 52.81643343 C191.01667448 52.82264826 194.46387444 52.82355802 197.91128731 52.81028748 C201.7451674 52.79655281 205.57850557 52.81560332 209.41235352 52.83789062 C210.54540924 52.8297937 211.67846497 52.82169678 212.84585571 52.81335449 C219.01302416 52.87980881 222.74680094 53.19244772 227.421875 57.35546875 C230.9696605 61.59933875 230.89264153 65.6292208 230.796875 70.91796875 C230.78744873 71.7186377 230.77802246 72.51930664 230.76831055 73.34423828 C230.2378898 94.3708774 219.91914652 111.59219499 205.21484375 125.8984375 C202.421875 128.35546875 202.421875 128.35546875 200.421875 128.35546875 C200.46828125 129.04769531 200.5146875 129.73992187 200.5625 130.453125 C201.21275155 148.07958653 194.14918829 165.29604685 182.421875 178.35546875 C181.69355469 179.17660156 180.96523438 179.99773437 180.21484375 180.84375 C169.78127148 191.95154342 154.97856289 201.27011843 139.421875 202.35546875 C139.29232422 203.22945313 139.29232422 203.22945313 139.16015625 204.12109375 C135.89477628 223.17413653 124.65258915 239.3614192 109.21875 250.7109375 C96.70400022 258.76692981 83.23763696 263.71803915 68.32202148 263.58251953 C67.44866433 263.5827606 66.57530718 263.58300167 65.67548466 263.58325005 C62.88120476 263.58177121 60.08720018 263.56660482 57.29296875 263.55078125 C55.55472949 263.54783637 53.81648846 263.54579867 52.07824707 263.54467773 C45.67192913 263.53424192 39.26564929 263.50631941 32.859375 263.48046875 C18.525 263.43921875 4.190625 263.39796875 -10.578125 263.35546875 C-10.578125 293.05546875 -10.578125 322.75546875 -10.578125 353.35546875 C1.6525 353.23171875 13.883125 353.10796875 26.484375 352.98046875 C30.33617432 352.94646973 34.18797363 352.9124707 38.15649414 352.87744141 C41.63050089 352.83750083 41.63050089 352.83750083 45.10447693 352.79501343 C46.64329969 352.77741002 48.18216847 352.76356926 49.72105408 352.7527771 C52.06170923 352.73561359 54.40193727 352.70624572 56.74243164 352.67431641 C58.0592543 352.66099274 59.37607697 352.64766907 60.73280334 352.63394165 C66.16140535 352.22415873 70.14880381 351.46248717 74.296875 347.85546875 C77.75659845 343.78520586 77.70421241 341.03654218 77.63671875 335.83203125 C77.35502991 332.58492716 76.57330482 330.80364752 74.421875 328.35546875 C68.77048496 324.19128661 63.07186166 324.21782124 56.26953125 324.1796875 C54.67251277 324.15649585 53.0755075 324.13237878 51.47851562 324.10742188 C48.9791568 324.07230955 46.48028853 324.04294683 43.98071289 324.02954102 C41.55556132 324.01401508 39.13180991 323.97379377 36.70703125 323.9296875 C35.96622818 323.93159592 35.22542511 323.93350433 34.46217346 323.93547058 C29.32101089 323.81506736 26.39154524 322.58418363 22.421875 319.35546875 C18.36557102 314.13287018 18.64789956 308.70206733 19.421875 302.35546875 C21.59409636 297.7696681 23.84902015 295.46394662 28.421875 293.35546875 C31.78547304 292.89375316 35.12419653 292.88744574 38.515625 292.88671875 C39.49873657 292.87910522 40.48184814 292.8714917 41.49475098 292.86364746 C43.57590198 292.85285405 45.65710712 292.84999027 47.73828125 292.85449219 C50.88376542 292.85545706 54.02674747 292.81398186 57.171875 292.76953125 C73.86126372 292.66951086 85.62486626 295.1386731 98.09375 306.9375 C108.03484731 317.46788916 109.99149337 329.41967233 109.76171875 343.21484375 C109.21544257 355.59105924 102.99349464 365.34846344 94.109375 373.60546875 C89.47188775 377.37014094 83.50453906 381.35546875 77.421875 381.35546875 C77.90333984 382.79019531 77.90333984 382.79019531 78.39453125 384.25390625 C81.48375138 395.14963215 80.62676626 408.3639119 75.97265625 418.58984375 C69.98387814 429.2700828 61.85548195 436.83799468 50.421875 441.35546875 C49.431875 441.35546875 48.441875 441.35546875 47.421875 441.35546875 C47.90527344 442.83853516 47.90527344 442.83853516 48.3984375 444.3515625 C49.53746997 448.35833602 49.78897802 452.26810605 49.796875 456.41796875 C49.82136719 457.09923828 49.84585937 457.78050781 49.87109375 458.48242188 C49.90060767 463.60308668 48.71815974 466.4798029 45.421875 470.35546875 C40.19927643 474.41177273 34.76847358 474.12944419 28.421875 473.35546875 C23.77679903 471.15516961 21.75288202 468.84599181 19.421875 464.35546875 C18.89478013 462.20449574 18.43900315 460.03509014 18.046875 457.85546875 C16.90348535 452.6394902 16.07178402 449.42018151 11.421875 446.35546875 C6.40543442 444.65864076 1.76142271 444.01066597 -3.515625 443.73046875 C-4.19947266 443.69179688 -4.88332031 443.653125 -5.58789062 443.61328125 C-7.25092013 443.52024463 -8.91448347 443.43683088 -10.578125 443.35546875 C-10.56924255 444.00613312 -10.56036011 444.65679749 -10.5512085 445.32717896 C-10.46261666 452.10800377 -10.40234127 458.88866379 -10.35839844 465.66992188 C-10.33830095 468.19961222 -10.31101832 470.72925621 -10.27636719 473.25878906 C-10.22776944 476.89790292 -10.20513688 480.53640175 -10.1875 484.17578125 C-10.16685486 485.30412384 -10.14620972 486.43246643 -10.12493896 487.59500122 C-10.12316218 493.83262463 -10.32865347 497.64593491 -14.578125 502.35546875 C-19.80072357 506.41177273 -25.23152642 506.12944419 -31.578125 505.35546875 C-36.19627026 503.16792626 -38.29337247 500.85343761 -40.578125 496.35546875 C-40.93888855 493.74211121 -40.93888855 493.74211121 -40.91870117 490.92260742 C-40.91847458 489.86188522 -40.91824799 488.80116302 -40.91801453 487.70829773 C-40.90253067 486.57479385 -40.88704681 485.44128998 -40.87109375 484.2734375 C-40.86684891 483.10412186 -40.86260406 481.93480621 -40.85823059 480.73005676 C-40.84145785 477.00079175 -40.80380692 473.27207003 -40.765625 469.54296875 C-40.75057641 467.0123776 -40.73688831 464.48177798 -40.72460938 461.95117188 C-40.69155883 455.75241926 -40.6413727 449.55398283 -40.578125 443.35546875 C-42.93313448 443.47064296 -45.28661573 443.59734853 -47.640625 443.73046875 C-48.95160156 443.80007813 -50.26257813 443.8696875 -51.61328125 443.94140625 C-56.89491015 444.49298523 -61.1382005 445.25152663 -65.390625 448.51171875 C-68.02189481 451.93236951 -68.70263228 454.64636912 -69.578125 458.85546875 C-71.07962112 466.07420007 -73.47589519 469.28731554 -79.578125 473.35546875 C-85.13210723 474.04470753 -90.04922645 474.07968385 -95.140625 471.66796875 C-98.8204939 468.17681108 -100.44323373 465.74499385 -100.94140625 460.61328125 C-100.94008913 459.23557372 -100.92280566 457.85780102 -100.890625 456.48046875 C-100.89384766 455.79855469 -100.89707031 455.11664063 -100.90039062 454.4140625 C-100.85133185 449.73117917 -100.0357815 445.80393442 -98.578125 441.35546875 C-99.45726562 441.25234375 -100.33640625 441.14921875 -101.2421875 441.04296875 C-110.51078659 439.1328125 -118.25749949 431.90657482 -123.578125 424.35546875 C-128.75778881 415.3758769 -130.75821541 408.76079418 -130.765625 398.54296875 C-130.77787109 397.66576172 -130.79011719 396.78855469 -130.80273438 395.88476562 C-130.81450268 390.64002287 -130.29109958 386.31835558 -128.578125 381.35546875 C-129.45726562 381.25234375 -130.33640625 381.14921875 -131.2421875 381.04296875 C-140.51078659 379.1328125 -148.25749949 371.90657482 -153.578125 364.35546875 C-160.87418445 351.70684168 -162.93224919 338.86985302 -159.70703125 324.46484375 C-154.63834812 310.43871733 -145.44917314 301.96248973 -132.34765625 295.5546875 C-128.47187489 293.87645777 -125.21194463 293.23098087 -120.99658203 293.1784668 C-120.09529572 293.16563156 -119.1940094 293.15279633 -118.26541138 293.13957214 C-117.298685 293.13218521 -116.33195862 293.12479828 -115.3359375 293.1171875 C-114.33480927 293.10911575 -113.33368103 293.10104401 -112.30221558 293.09272766 C-110.1857068 293.07890996 -108.06917595 293.06817748 -105.95263672 293.06030273 C-102.72190126 293.04306891 -99.49218386 292.99915903 -96.26171875 292.95507812 C-94.20313251 292.94495235 -92.14453759 292.93643589 -90.0859375 292.9296875 C-89.12325958 292.91217941 -88.16058167 292.89467133 -87.16873169 292.87663269 C-81.30669422 292.89552864 -78.05972293 293.48752622 -73.578125 297.35546875 C-69.52182102 302.57806732 -69.80414956 308.00887017 -70.578125 314.35546875 C-72.75485033 318.95077777 -75.03795149 321.17443537 -79.578125 323.35546875 C-82.35593717 323.65135281 -84.91952503 323.79644039 -87.6953125 323.796875 C-88.85838425 323.81668678 -88.85838425 323.81668678 -90.04495239 323.8368988 C-92.51437975 323.87764151 -94.98343872 323.89940874 -97.453125 323.91796875 C-99.91555515 323.94186412 -102.37764394 323.97018063 -104.83987427 324.00975037 C-106.3679722 324.03383509 -107.89624877 324.04891408 -109.42453003 324.05335999 C-115.49975389 324.14125621 -120.71648048 324.73664743 -125.453125 328.85546875 C-128.91284845 332.92573164 -128.86046241 335.67439532 -128.79296875 340.87890625 C-128.51127991 344.12601034 -127.72955482 345.90728998 -125.578125 348.35546875 C-120.1412104 352.36161635 -114.68125099 352.5055398 -108.12573242 352.56079102 C-107.38171582 352.57082374 -106.63769922 352.58085646 -105.87113667 352.5911932 C-103.47532014 352.62244372 -101.07948699 352.64729355 -98.68359375 352.671875 C-97.19941688 352.69029087 -95.71524518 352.70912821 -94.2310791 352.72839355 C-88.74265554 352.79668954 -83.25413306 352.85683933 -77.765625 352.91796875 C-65.49375 353.06234375 -53.221875 353.20671875 -40.578125 353.35546875 C-40.578125 323.65546875 -40.578125 293.95546875 -40.578125 263.35546875 C-68.86355904 263.51335882 -68.86355904 263.51335882 -97.14868164 263.71582031 C-102.66687012 263.73388672 -102.66687012 263.73388672 -105.26463318 263.73724365 C-107.04734818 263.74331496 -108.83004862 263.75723248 -110.61265564 263.777771 C-131.63584787 264.00750866 -150.42749636 259.85867443 -166.578125 245.35546875 C-167.39925781 244.62714844 -168.22039062 243.89882812 -169.06640625 243.1484375 C-180.17419967 232.71486523 -189.49277468 217.91215664 -190.578125 202.35546875 C-191.13757813 202.28070313 -191.69703125 202.2059375 -192.2734375 202.12890625 C-211.24026991 199.01858968 -227.61906262 187.61122189 -238.87109375 172.21875 C-247.78247062 158.3584659 -252.07650674 144.71900246 -251.578125 128.35546875 C-252.12984375 128.12472656 -252.6815625 127.89398438 -253.25 127.65625 C-268.01795361 119.4050276 -275.78988889 101.74741112 -280.578125 86.35546875 C-281.67587474 81.36873973 -281.82767819 76.44157137 -281.890625 71.35546875 C-281.91962891 70.57429688 -281.94863281 69.793125 -281.97851562 68.98828125 C-282.03714718 63.63025897 -281.23099658 60.53729107 -277.578125 56.35546875 C-274.03619437 53.84444979 -271.62021499 52.97940255 -267.29434204 52.9677887 C-266.24896271 52.95788406 -265.20358337 52.94797943 -264.12652588 52.93777466 C-262.98987488 52.94227631 -261.85322388 52.94677795 -260.68212891 52.95141602 C-259.47654327 52.94455276 -258.27095764 52.93768951 -257.02883911 52.93061829 C-253.72638978 52.91546077 -250.42450544 52.91385621 -247.12206316 52.91956067 C-244.35455123 52.92265877 -241.58708992 52.91655193 -238.8195852 52.91052192 C-232.27697865 52.89647476 -225.7345026 52.89803448 -219.19189453 52.90942383 C-212.47716897 52.92085578 -205.76284512 52.90691353 -199.04817259 52.88002735 C-193.26017111 52.85773245 -187.47229439 52.85126517 -181.6842531 52.85710377 C-178.23804971 52.86044789 -174.79210252 52.8582329 -171.34593582 52.84085274 C-143.75539924 52.73342264 -143.75539924 52.73342264 -131.578125 57.35546875 C-130.74345703 57.66953171 -129.90878906 57.98359467 -129.04882812 58.30717468 C-127.09782675 59.08440852 -125.25501762 59.9528205 -123.390625 60.91796875 C-122.73263916 61.2538501 -122.07465332 61.58973145 -121.39672852 61.93579102 C-109.06492829 68.57185129 -100.33684362 79.21910127 -93.078125 90.98046875 C-86.36069706 101.58071767 -77.54975228 108.02949131 -65.30859375 111.203125 C-57.14732731 112.56165887 -48.81264363 112.80650084 -40.578125 113.35546875 C-40.908125 102.79546875 -41.238125 92.23546875 -41.578125 81.35546875 C-44.878125 79.70546875 -48.178125 78.05546875 -51.578125 76.35546875 C-61.43658529 69.32675169 -67.63539631 60.04669194 -70.578125 48.35546875 C-71.01267814 45.09248491 -71.10343018 41.89482171 -71.078125 38.60546875 C-71.07240479 37.73365967 -71.06668457 36.86185059 -71.06079102 35.96362305 C-70.71006803 23.17817592 -65.65081692 13.82981972 -56.99609375 4.68359375 C-41.74951 -9.70977485 -17.37512065 -11.0832209 0 0 Z M-95.390625 387.79296875 C-99.32891363 392.40639258 -100.0235838 394.94565288 -99.89453125 400.84765625 C-99.42770483 404.54768788 -98.0524892 406.61360572 -95.578125 409.35546875 C-90.98335726 412.77209092 -86.50607216 413.48484325 -80.87963867 413.46899414 C-79.97908249 413.46891861 -79.07852631 413.46884308 -78.15068054 413.46876526 C-77.1921669 413.46360397 -76.23365326 413.45844269 -75.24609375 413.453125 C-74.25434647 413.45171005 -73.26259918 413.4502951 -72.24079895 413.44883728 C-69.08237657 413.44325293 -65.92402585 413.43070327 -62.765625 413.41796875 C-60.62044373 413.41295173 -58.47526135 413.40838917 -56.33007812 413.40429688 C-51.07937747 413.39414078 -45.82883116 413.37456223 -40.578125 413.35546875 C-40.578125 403.45546875 -40.578125 393.55546875 -40.578125 383.35546875 C-46.85882753 383.30945628 -53.13894071 383.26966038 -59.41967773 383.24560547 C-61.55446357 383.23557312 -63.68923574 383.22194411 -65.82397461 383.20458984 C-68.89961119 383.18021985 -71.97506543 383.16895775 -75.05078125 383.16015625 C-75.99897232 383.14983368 -76.94716339 383.13951111 -77.92408752 383.12887573 C-84.58052354 383.12775897 -90.15900276 383.25889614 -95.390625 387.79296875 Z M-10.578125 383.35546875 C-10.578125 393.25546875 -10.578125 403.15546875 -10.578125 413.35546875 C-4.29742247 413.40148122 1.98269071 413.44127712 8.26342773 413.46533203 C10.39821357 413.47536438 12.53298574 413.48899339 14.66772461 413.50634766 C17.74336119 413.53071765 20.81881543 413.54197975 23.89453125 413.55078125 C24.84272232 413.56110382 25.79091339 413.57142639 26.76783752 413.58206177 C33.42427354 413.58317853 39.00275276 413.45204136 44.234375 408.91796875 C48.17266363 404.30454492 48.8673338 401.76528462 48.73828125 395.86328125 C48.27145483 392.16324962 46.8962392 390.09733178 44.421875 387.35546875 C39.82710726 383.93884658 35.34982216 383.22609425 29.72338867 383.24194336 C28.82283249 383.24201889 27.92227631 383.24209442 26.99443054 383.24217224 C26.0359169 383.24733353 25.07740326 383.25249481 24.08984375 383.2578125 C23.09809647 383.25922745 22.10634918 383.2606424 21.08454895 383.26210022 C17.92612657 383.26768457 14.76777585 383.28023423 11.609375 383.29296875 C9.46419373 383.29798577 7.31901135 383.30254833 5.17382812 383.30664062 C-0.07687253 383.31679672 -5.32741884 383.33637527 -10.578125 383.35546875 Z " fill="#CC57FF" transform="translate(281.578125,6.64453125)"/>
<path d="M0 0 C3.47249131 0.0102514 6.94494398 0.00070304 10.41743731 -0.00554466 C16.23457831 -0.01277753 22.05151466 -0.00334 27.86862445 0.01581764 C34.58147929 0.0376707 41.29384964 0.030457 48.00669318 0.00851202 C53.7981663 -0.00965722 59.58949398 -0.0121957 65.38098639 -0.0017333 C68.82841416 0.00448153 72.27561412 0.00539129 75.72302699 -0.00787926 C79.55690708 -0.02161392 83.39024525 -0.00256341 87.2240932 0.01972389 C88.35714892 0.01162697 89.49020465 0.00353004 90.6575954 -0.00481224 C96.82476384 0.06164208 100.55854062 0.37428099 105.23361468 4.53730202 C108.78140019 8.78117202 108.70438121 12.81105406 108.60861468 18.09980202 C108.59918841 18.90047096 108.58976214 19.70113991 108.58005023 20.52607155 C108.04962948 41.55271067 97.73088621 58.77402826 83.02658343 73.08027077 C80.23361468 75.53730202 80.23361468 75.53730202 78.23361468 75.53730202 C78.28002093 76.22952858 78.32642718 76.92175514 78.37423968 77.63495827 C79.02449123 95.26141979 71.96092798 112.47788011 60.23361468 125.53730202 C59.50529437 126.35843483 58.77697406 127.17956764 58.02658343 128.02558327 C47.59301116 139.13337669 32.79030258 148.4519517 17.23361468 149.53730202 C17.1040639 150.41128639 17.1040639 150.41128639 16.97189593 151.30292702 C13.70651596 170.3559698 2.46432884 186.54325246 -12.96951032 197.89277077 C-25.4842601 205.94876308 -38.95062336 210.89987242 -53.86623883 210.7643528 C-55.17627456 210.7647144 -55.17627456 210.7647144 -56.51277566 210.76508331 C-59.30705556 210.76360447 -62.10106013 210.74843808 -64.89529157 210.73261452 C-66.63353082 210.72966964 -68.37177186 210.72763194 -70.11001325 210.726511 C-76.51633119 210.71607519 -82.92261103 210.68815268 -89.32888532 210.66230202 C-103.66326032 210.62105202 -117.99763532 210.57980202 -132.76638532 210.53730202 C-132.76638532 161.03730202 -132.76638532 111.53730202 -132.76638532 60.53730202 C-124.84638532 59.87730202 -116.92638532 59.21730202 -108.76638532 58.53730202 C-94.54513588 53.36593859 -85.33942662 47.7432493 -77.82888532 34.59980202 C-74.54099554 28.86158789 -70.37990529 24.24643898 -65.76638532 19.53730202 C-65.17470563 18.90952858 -64.58302594 18.28175514 -63.97341657 17.63495827 C-59.87236759 13.64254635 -55.2487774 10.9629748 -50.20388532 8.34980202 C-49.59794538 8.02866432 -48.99200543 7.70752663 -48.36770368 7.37665749 C-32.75287627 -0.3164529 -17.05351026 -0.06621968 0 0 Z " fill="#FFD9FC" transform="translate(403.76638531684875,59.462697982788086)"/>
<path d="M0 0 C1.04537933 -0.00990463 2.09075867 -0.01980927 3.16781616 -0.03001404 C4.30446716 -0.02551239 5.44111816 -0.02101074 6.61221313 -0.01637268 C7.81779877 -0.02323593 9.0233844 -0.03009918 10.26550293 -0.03717041 C13.56795226 -0.05232792 16.8698366 -0.05393248 20.17227888 -0.04822803 C22.93979081 -0.04512993 25.70725213 -0.05123676 28.47475684 -0.05726677 C35.01736339 -0.07131394 41.55983944 -0.06975422 48.10244751 -0.05836487 C54.81717307 -0.04693291 61.53149692 -0.06087517 68.24616945 -0.08776134 C74.03417093 -0.11005624 79.82204765 -0.11652353 85.61008894 -0.11068493 C89.05629233 -0.10734081 92.50223952 -0.10955579 95.94840622 -0.12693596 C123.5389428 -0.23436606 123.5389428 -0.23436606 135.71621704 4.38768005 C136.55088501 4.70174301 137.38555298 5.01580597 138.24551392 5.33938599 C140.19651529 6.11661983 142.03932443 6.98503181 143.90371704 7.95018005 C144.8906958 8.45400208 144.8906958 8.45400208 145.89761353 8.96800232 C158.22941375 15.60406259 166.95749842 26.25131257 174.21621704 38.01268005 C180.93364498 48.61292898 189.74458976 55.06170261 201.98574829 58.2353363 C210.14701473 59.59387018 218.48169841 59.83871215 226.71621704 60.38768005 C226.71621704 109.88768005 226.71621704 159.38768005 226.71621704 210.38768005 C212.50559204 210.47018005 198.29496704 210.55268005 183.65371704 210.63768005 C179.19605835 210.67409607 174.73839966 210.71051208 170.1456604 210.74803162 C164.62747192 210.76609802 164.62747192 210.76609802 162.02970886 210.76945496 C160.24699386 210.77552627 158.46429343 210.78944378 156.6816864 210.8099823 C135.65849417 211.03971997 116.86684568 206.89088573 100.71621704 192.38768005 C99.89508423 191.65935974 99.07395142 190.93103943 98.22793579 190.1806488 C87.12014237 179.74707653 77.80156736 164.94436795 76.71621704 149.38768005 C76.15676392 149.31291443 75.59731079 149.2381488 75.02090454 149.16111755 C56.05407213 146.05080098 39.67527943 134.6434332 28.42324829 119.2509613 C19.51187142 105.3906772 15.2178353 91.75121376 15.71621704 75.38768005 C15.16449829 75.15693787 14.61277954 74.92619568 14.04434204 74.6884613 C-0.72361157 66.4372389 -8.49554685 48.77962242 -13.28378296 33.38768005 C-14.3815327 28.40095103 -14.53333614 23.47378268 -14.59628296 18.38768005 C-14.62528687 17.60650818 -14.65429077 16.8253363 -14.68417358 16.02049255 C-14.74280514 10.66247028 -13.93665454 7.56950237 -10.28378296 3.38768005 C-6.74185233 0.8766611 -4.32587295 0.01161385 0 0 Z " fill="#FFD9FC" transform="translate(14.283782958984375,59.61231994628906)"/>
</svg>
