<?xml version="1.0" encoding="UTF-8"?>
<svg version="1.1" xmlns="http://www.w3.org/2000/svg" width="512" height="512">
<path d="M0 0 C11.37216073 8.74911771 20.45566777 21.01418979 22.4453125 35.62109375 C22.50460937 36.41257813 22.56390625 37.2040625 22.625 38.01953125 C22.70492188 38.91414063 22.78484375 39.80875 22.8671875 40.73046875 C23.31297508 50.51157261 21.18366415 61.3077356 16.625 70.01953125 C17.22747559 69.77307861 17.82995117 69.52662598 18.45068359 69.27270508 C42.90106777 59.33060067 70.94468589 48.12071914 97.13671875 58.42578125 C114.25196727 66.24551406 129.19530779 76.93660218 144.25 88.14453125 C171.03736083 108.12920009 171.03736083 108.12920009 202.4375 117.89453125 C206.40727274 118.47900898 208.44202627 118.9034133 211.875 121.08203125 C214.24407122 125.05868651 215.00775606 128.40202727 214.625 133.01953125 C213.2342841 136.43310665 212.14754757 138.33910312 208.70985413 139.87541199 C203.44371427 141.5702242 198.27226154 142.78419306 192.80859375 143.6328125 C191.9759903 143.76767059 191.14338684 143.90252869 190.28555298 144.04147339 C187.54595023 144.48119694 184.80454129 144.90779492 182.0625 145.33203125 C180.62715408 145.55688705 180.62715408 145.55688705 179.16281128 145.7862854 C130.25954136 153.42548585 81.05909297 158.54445456 31.625 161.01953125 C30.50834961 161.07737793 29.39169922 161.13522461 28.24121094 161.19482422 C12.02116807 162.01630821 -4.1134052 162.01953125 -20.375 162.01953125 C-20.375 205.24953125 -20.375 248.47953125 -20.375 293.01953125 C-17.405 293.67953125 -14.435 294.33953125 -11.375 295.01953125 C-6.72746644 296.492966 -2.18256868 298.22662388 2.375 299.95703125 C3.32543686 300.31760117 3.32543686 300.31760117 4.29507446 300.68545532 C19.99405869 306.67859946 36.23529074 313.35720218 48.625 325.01953125 C49.33527344 325.62925781 50.04554688 326.23898437 50.77734375 326.8671875 C57.57832656 333.03493169 63.21133716 342.1061871 63.86328125 351.42578125 C64.09863723 360.05762079 63.54430343 367.14406574 59.625 375.01953125 C59.22410156 375.83550781 58.82320313 376.65148437 58.41015625 377.4921875 C49.67247647 393.47327718 31.87538731 409.8943376 15.625 418.01953125 C11.01479651 418.40371487 8.49913954 418.40803771 4.25 416.51953125 C0.83834671 413.27033764 -0.18967934 410.69667168 -0.375 406.01953125 C1.00143597 398.44913341 7.01981956 395.40147249 13.00537109 391.18554688 C24.14570555 383.16531212 36.12852532 373.50895529 40.625 360.01953125 C41.17311476 354.31913771 40.14980041 350.47595466 36.625 346.01953125 C22.19313226 330.28720949 -0.7502349 323.56111962 -20.375 317.01953125 C-20.045 351.00953125 -19.715 384.99953125 -19.375 420.01953125 C-14.425 421.99953125 -9.475 423.97953125 -4.375 426.01953125 C16.24556963 435.55983123 32.76746721 449.50950434 41.7890625 470.76171875 C43.61313386 476.370312 43.9372498 481.97721046 44.0625 487.83203125 C44.08505859 488.54979736 44.10761719 489.26756348 44.13085938 490.00708008 C44.10690565 495.14455521 42.86756195 498.07652762 39.625 502.01953125 C35.91046768 503.87679741 31.66920575 503.60454214 27.625 503.01953125 C24.80075712 500.82930207 23.20991397 499.18935918 21.625 496.01953125 C21.49428804 494.02109059 21.39508874 492.02053844 21.3125 490.01953125 C20.39915542 477.79683168 15.04495887 467.92360057 6 459.60546875 C0.40622904 455.18213356 -5.39483319 451.86297886 -11.78125 448.75 C-12.51504883 448.38789429 -13.24884766 448.02578857 -14.00488281 447.65270996 C-15.7929815 446.77103752 -17.58371858 445.89471927 -19.375 445.01953125 C-19.37864563 445.64513947 -19.38229126 446.27074768 -19.38604736 446.91531372 C-19.42791474 453.43708205 -19.49729045 459.95814941 -19.58251953 466.47949219 C-19.61071451 468.912038 -19.63193632 471.34467517 -19.64599609 473.77734375 C-19.66744508 477.27781907 -19.71410843 480.77719756 -19.765625 484.27734375 C-19.76685364 485.36193878 -19.76808228 486.44653381 -19.76934814 487.56399536 C-19.88695927 493.65136203 -20.24610674 497.41244376 -24.375 502.01953125 C-28.08953232 503.87679741 -32.33079425 503.60454214 -36.375 503.01953125 C-39.19924288 500.82930207 -40.79008603 499.18935918 -42.375 496.01953125 C-42.49482257 494.14108217 -42.55229161 492.25852294 -42.58032227 490.37646484 C-42.60026749 489.19539154 -42.62021271 488.01431824 -42.64076233 486.79745483 C-42.66583107 484.87710922 -42.66583107 484.87710922 -42.69140625 482.91796875 C-42.71218735 481.61123199 -42.73296844 480.30449524 -42.75437927 478.9581604 C-42.80959294 475.48284225 -42.85900525 472.00746472 -42.90722656 468.53204346 C-42.95744677 464.98615225 -43.01313012 461.44034735 -43.06835938 457.89453125 C-43.17593228 450.93627275 -43.27737917 443.97793629 -43.375 437.01953125 C-44.07668304 436.77046021 -44.77836609 436.52138916 -45.50131226 436.26477051 C-48.7390316 435.11338912 -51.97498328 433.95711378 -55.2109375 432.80078125 C-56.8659729 432.21345215 -56.8659729 432.21345215 -58.55444336 431.61425781 C-83.88790582 422.54459832 -114.21728663 410.06339566 -126.46484375 384.28125 C-130.03887465 375.39985991 -129.84822901 363.52574099 -126.375 354.64453125 C-118.71719228 338.89749002 -106.41171151 328.76506043 -92.375 319.01953125 C-91.78428711 318.60010254 -91.19357422 318.18067383 -90.58496094 317.74853516 C-84.45720855 313.43402616 -79.19168798 309.80270011 -71.47265625 310.48046875 C-68.36521004 311.27903035 -66.51651612 312.67077164 -64.375 315.01953125 C-63.24612092 317.2772894 -63.11109388 318.7571005 -63 321.26953125 C-62.95101562 322.0171875 -62.90203125 322.76484375 -62.8515625 323.53515625 C-63.93191695 328.66280874 -67.50823202 331.45224796 -71.6875 334.1875 C-72.91269933 334.86787099 -74.14206255 335.54078555 -75.375 336.20703125 C-87.37702455 343.0720946 -100.65636349 352.46968513 -105.375 366.01953125 C-106.25362989 372.54649614 -104.13019535 376.85613765 -100.375 382.01953125 C-92.35032205 390.97158943 -80.80444671 396.49315311 -70.125 401.64453125 C-69.41239014 401.99241699 -68.69978027 402.34030273 -67.96557617 402.69873047 C-59.9258716 406.47270274 -51.87588453 409.01921906 -43.375 412.01953125 C-42.88 360.53953125 -42.88 360.53953125 -42.375 308.01953125 C-44.355 307.68953125 -46.335 307.35953125 -48.375 307.01953125 C-52.89112357 305.4733698 -57.28273303 303.60654743 -61.6875 301.76953125 C-62.64349594 301.37254028 -62.64349594 301.37254028 -63.61880493 300.9675293 C-87.44810965 291.02574985 -111.84003787 279.4022555 -130.375 261.01953125 C-131.2825 260.15328125 -132.19 259.28703125 -133.125 258.39453125 C-133.8675 257.61078125 -134.61 256.82703125 -135.375 256.01953125 C-135.84292969 255.54644531 -136.31085938 255.07335937 -136.79296875 254.5859375 C-144.21033891 246.63466923 -149.29938963 236.05583294 -149.40234375 225.11328125 C-148.77924905 212.4596659 -143.21124293 203.38944522 -134.125 194.83203125 C-124.2602875 186.46097739 -111.51223732 182.22404845 -98.51171875 182.80078125 C-88.96906784 183.7777254 -79.6157641 186.11385158 -72.875 193.39453125 C-69.32434323 198.06168349 -68.11753626 202.62769189 -68.4375 208.45703125 C-69.50880021 215.794192 -74.16079572 221.07163636 -79.04296875 226.37890625 C-81.97899621 229.99512775 -82.82700296 233.11299395 -82.6875 237.8125 C-81.62479446 245.3178579 -77.02589671 251.29158477 -72.375 257.01953125 C-71.653125 257.98890625 -70.93125 258.95828125 -70.1875 259.95703125 C-62.87001968 268.55216687 -52.46804788 274.72434425 -43.375 281.01953125 C-42.88 222.11453125 -42.88 222.11453125 -42.375 162.01953125 C-51.285 162.01953125 -60.195 162.01953125 -69.375 162.01953125 C-75.8620889 161.84861699 -82.33293355 161.64768779 -88.8125 161.33203125 C-89.68242584 161.29074097 -90.55235168 161.24945068 -91.44863892 161.20690918 C-142.6383705 158.72039994 -193.58800707 153.3945368 -244.20376587 145.41397095 C-246.3793946 145.07112275 -248.55563863 144.73215367 -250.73251343 144.39730835 C-253.74374404 143.93044385 -256.75092692 143.44320379 -259.7578125 142.94921875 C-260.64609238 142.81392258 -261.53437225 142.6786264 -262.4495697 142.53923035 C-267.71743876 141.64351216 -271.1939097 140.38896673 -275.375 137.01953125 C-277.38042966 134.15057381 -277.64140265 132.03251907 -277.3125 128.58203125 C-277.25964844 127.84082031 -277.20679688 127.09960938 -277.15234375 126.3359375 C-275.97742416 122.83479519 -274.26941769 121.28823265 -271.375 119.01953125 C-268.5827638 118.3049032 -266.14181168 117.84175403 -263.3125 117.51953125 C-240.3222902 114.13219745 -221.12358611 98.5573046 -202.9375 85.01953125 C-178.77256115 67.0747136 -155.08200788 50.87540785 -123.63525391 55.41503906 C-108.28421703 58.20817212 -93.63470704 63.81147937 -79.375 70.01953125 C-79.64054688 69.40207031 -79.90609375 68.78460938 -80.1796875 68.1484375 C-86.63258208 52.67562093 -87.22456551 38.31615035 -81.00390625 22.54296875 C-74.55450472 8.34500567 -64.12339434 -0.85890309 -49.875 -7.0703125 C-33.50777066 -12.6198262 -14.04218171 -9.69482022 0 0 Z M-56.91015625 25.81640625 C-62.92295431 33.73997688 -63.45517263 42.31744013 -62.375 52.01953125 C-59.54877438 61.27192766 -53.82185866 68.33928858 -45.41796875 73.13671875 C-36.98643193 76.99428462 -28.50211619 76.91497601 -19.828125 74.0546875 C-11.19273361 70.41077234 -6.25568338 63.72464744 -1.5 55.95703125 C1.23195393 48.84086383 0.89209854 39.09504487 -1.9375 32.08203125 C-6.63460901 23.33057552 -13.29738047 17.9202133 -22.125 13.70703125 C-36.33087451 10.70194241 -47.58429429 14.90063907 -56.91015625 25.81640625 Z M-181.46923828 97.60400391 C-185.00158484 100.22769662 -188.56277542 102.81162161 -192.125 105.39453125 C-192.87112549 105.93658203 -193.61725098 106.47863281 -194.38598633 107.03710938 C-200.71708394 111.6081037 -207.18052274 115.96179404 -213.71386719 120.23779297 C-214.42704102 120.70588379 -215.14021484 121.17397461 -215.875 121.65625 C-216.5040625 122.06576904 -217.133125 122.47528809 -217.78125 122.8972168 C-219.53070516 124.06122574 -219.53070516 124.06122574 -221.375 126.01953125 C-184.41357714 131.64275917 -147.24050524 135.32700188 -109.9375 137.76953125 C-108.59718719 137.85814423 -108.59718719 137.85814423 -107.22979736 137.94854736 C-82.33982247 139.56782553 -57.4401906 140.22981134 -32.5 140.20703125 C-30.63080399 140.20612488 -30.63080399 140.20612488 -28.72384644 140.2052002 C33.32322237 140.12452184 97.53051291 137.45970019 158.625 126.01953125 C155.34029341 123.32453859 152.00203657 120.89152176 148.4375 118.58203125 C143.17348889 115.10494548 138.04210963 111.47615714 132.9375 107.76953125 C131.38933644 106.64711676 129.84115924 105.52472109 128.29296875 104.40234375 C127.52001465 103.84192383 126.74706055 103.28150391 125.95068359 102.70410156 C99.49012657 82.26400579 99.49012657 82.26400579 67.625 77.01953125 C37.89860434 81.86851778 3.95999515 97.04685264 -20.41308594 114.47705078 C-24.85941386 117.64014313 -28.31147763 118.83078201 -33.81298828 118.52636719 C-38.54348518 117.59054562 -42.27802726 115.19330806 -46.3125 112.64453125 C-48.16647959 111.53266936 -50.02197977 110.4233395 -51.87890625 109.31640625 C-53.26360107 108.48012695 -53.26360107 108.48012695 -54.67626953 107.62695312 C-97.96640279 81.84241925 -138.14625577 65.36609223 -181.46923828 97.60400391 Z M-122.4375 215.20703125 C-125.58850045 219.08461534 -126.82503797 221.59659195 -126.6953125 226.7578125 C-125.6581813 234.08097058 -120.48161004 239.26383829 -115.5 244.33203125 C-114.75991699 245.08758301 -114.75991699 245.08758301 -114.00488281 245.85839844 C-110.43840295 249.34112535 -106.78324775 251.69387673 -102.375 254.01953125 C-102.705 252.90578125 -103.035 251.79203125 -103.375 250.64453125 C-105.73036124 239.87472731 -106.33000739 226.64707922 -100.375 217.01953125 C-98.17855942 213.89183749 -95.86648682 210.91693446 -93.375 208.01953125 C-93.87 207.02953125 -93.87 207.02953125 -94.375 206.01953125 C-106.07799031 205.26069182 -114.35292661 206.22235354 -122.4375 215.20703125 Z " fill="#3D68FC" transform="translate(287.375,8.98046875)"/>
<path d="M0 0 C10.82339852 8.09950989 18.0099298 18.34890592 20.34375 31.75390625 C21.74294719 42.79201741 17.84373827 52.72392176 11.23828125 61.45703125 C-3.94081243 79.85972626 -30.5766259 95.01784279 -54.05859375 99.1796875 C-58.96164162 99.499253 -61.95681572 97.8217298 -65.65625 94.75390625 C-67.5580471 90.95031206 -67.38120976 86.87825714 -66.65625 82.75390625 C-64.76873737 79.64749832 -62.22560562 77.30447317 -59.65625 74.75390625 C-52.04698073 66.1594505 -45.02699629 58.13330745 -45.1875 46.17578125 C-46.27814403 40.5407871 -49.48506042 36.51248616 -53.15625 32.25390625 C-58.67485724 25.85232185 -61.28368486 20.97818598 -60.99609375 12.5 C-60.2292157 6.30327274 -57.74575236 2.32825067 -52.90625 -1.55859375 C-37.02618023 -12.46132822 -15.6236228 -10.11984658 0 0 Z M-36.65625 14.75390625 C-35.19044474 17.93223646 -33.37101626 20.57734188 -31.28125 23.37890625 C-23.1306739 35.01045756 -21.52989419 46.81446261 -23.65625 60.75390625 C-19.11491871 59.30703643 -16.02624906 56.75711921 -12.59375 53.56640625 C-12.07748047 53.10943359 -11.56121094 52.65246094 -11.02929688 52.18164062 C-6.79779308 48.29512567 -3.45546331 44.09957853 -2.08984375 38.3828125 C-2.10334206 31.24220626 -4.68751135 26.9743423 -9.453125 21.8046875 C-15.13493241 16.38424323 -21.08147197 13.66487111 -28.96875 13.50390625 C-31.72506927 13.69077535 -34.05407029 13.88651301 -36.65625 14.75390625 Z " fill="#446EFC" transform="translate(354.65625,200.24609375)"/>
<path d="M0 0 C2.93423195 1.79646854 4.47205355 2.9441071 6 6 C6.66511746 10.75083902 6.62413755 14.02478507 4 18.125 C2.44351734 19.74781004 0.82583818 21.13799515 -0.9375 22.53515625 C-10.25784525 30.00202375 -12.48141412 39.19005708 -13.8371582 50.63012695 C-14.49594253 55.67272126 -15.71727577 58.9359748 -19 63 C-22.71453232 64.85726616 -26.95579425 64.58501089 -31 64 C-33.82424288 61.80977082 -35.41508603 60.16982793 -37 57 C-38.46582472 41.76503489 -34.22958894 25.44272841 -24.89453125 13.25 C-22.69428866 10.7051411 -20.42129514 8.33437686 -18 6 C-17.33871094 5.35546875 -16.67742187 4.7109375 -15.99609375 4.046875 C-11.04591957 -0.23327561 -6.4519541 -1.33029981 0 0 Z " fill="#86A0F9" transform="translate(218,448)"/>
</svg>
